<svg viewBox="0 0 24 24" fill="none" xmlns="http://www.w3.org/2000/svg">
  <!-- Brain outline -->
  <path d="M12 2C9 2 7 4 7 6.5c0 .8-.3 1.3-.8 1.8C5 9.5 4 11 4 12.5c0 1.8 1 3.2 2.5 3.8.3.5.5 1.2.5 2C7 20.5 9 22 12 22s5-1.5 5-3.7c0-.8.2-1.5.5-2C19 15.7 20 14.3 20 12.5c0-1.5-1-3-2.2-4.2-.5-.5-.8-1-.8-1.8C17 4 15 2 12 2z"
    stroke="currentColor" stroke-width="1.5" fill="rgba(16,185,129,0.08)"/>
  <!-- Neural nodes -->
  <circle cx="9" cy="8.5" r="1.2" fill="currentColor"/>
  <circle cx="15" cy="8.5" r="1.2" fill="currentColor"/>
  <circle cx="8" cy="13" r="1.2" fill="currentColor"/>
  <circle cx="16" cy="13" r="1.2" fill="currentColor"/>
  <circle cx="12" cy="16.5" r="1.2" fill="currentColor"/>
  <!-- Neural connections -->
  <line x1="9" y1="8.5" x2="15" y2="8.5" stroke="currentColor" stroke-width="0.9"/>
  <line x1="9" y1="8.5" x2="8" y2="13" stroke="currentColor" stroke-width="0.9"/>
  <line x1="15" y1="8.5" x2="16" y2="13" stroke="currentColor" stroke-width="0.9"/>
  <line x1="8" y1="13" x2="12" y2="16.5" stroke="currentColor" stroke-width="0.9"/>
  <line x1="16" y1="13" x2="12" y2="16.5" stroke="currentColor" stroke-width="0.9"/>
  <line x1="9" y1="8.5" x2="16" y2="13" stroke="currentColor" stroke-width="0.6" opacity="0.4"/>
  <line x1="15" y1="8.5" x2="8" y2="13" stroke="currentColor" stroke-width="0.6" opacity="0.4"/>
</svg>
